<svg xmlns="http://www.w3.org/2000/svg" width="325" height="87" fill="#005">
  <path d="M53.6 31.1c-1.78 0-3.21.58-4.29 1.75-1.08 1.16-1.63 2.78-1.63 4.85s.54 3.69 1.63 4.85a5.6 5.6 0 004.29 1.75 5.6 5.6 0 004.3-1.8c1.12-1.2 1.67-2.8 1.67-4.8 0-2.04-.56-3.65-1.67-4.83a5.66 5.66 0 00-4.3-1.77M21.9 31.1c-1.78 0-3.21.58-4.29 1.75-1.08 1.16-1.63 2.78-1.63 4.85s.54 3.69 1.63 4.85a5.6 5.6 0 004.29 1.75 5.6 5.6 0 004.3-1.8 6.75 6.75 0 001.68-4.8c0-2.04-.56-3.65-1.68-4.83a5.66 5.66 0 00-4.3-1.77"/>
  <path d="M322 40.8c-.21-.24-.43-.48-.66-.7l-1.03-1.04-.11-.1.58-.16a3.5 3.5 0 002.48-4.51 14.47 14.47 0 00-3.75-5.93l-3.76-3.75c-.3-.29-.6-.57-.92-.84-2.69-2.25-6.22-3.4-10.5-3.4-1.37 0-2.64.13-3.83.35h-16c-1.05 0-2.04.47-2.7 1.28l-1.57 1.9-2.06-2.04a3.5 3.5 0 00-2.58-1.14h-8.3a3.5 3.5 0 00-3.5 3.5v4.47a15.57 15.57 0 00-5.3-3.16 17.97 17.97 0 00-6.04-1.02 21.31 21.31 0 00-8.18 1.67 512.4 512.4 0 00-4.04-4.04 3.45 3.45 0 00-1.95-1.07l-8.12-1.46a3.47 3.47 0 00-2.6.57 14.13 14.13 0 00-5.83-2.43 14.49 14.49 0 00-8.14.78 14.99 14.99 0 00-6.46 5.16c-.6.83-1.14 1.73-1.6 2.7l-.03-.02-.2-.21-1.89-1.88c-2.47-2.55-5.7-3.84-9.6-3.84-1.9 0-3.67.32-5.27.94-.32.14-.65.3-.97.51l-.04-.04a3.52 3.52 0 00-2.36-1.12h-8.54a3.5 3.5 0 00-3.51 3.5v.97l-.57-.57c-.3-.3-.6-.58-.93-.86-2.7-2.25-6.22-3.39-10.5-3.39-4.18 0-7.55 1.02-10 3.05a11.1 11.1 0 00-2.73 3.26c-.4-.38-.81-.8-1.15-1.15a15.68 15.68 0 00-4.08-3.07 18.75 18.75 0 00-8.84-2.08 19 19 0 00-8.86 2.07 15.77 15.77 0 00-5.64 4.96l-3.12-3.12c-2.56-2.56-5.95-3.87-10.1-3.87a13.64 13.64 0 00-9.1 3.37c-.6-.53-1.24-1.02-1.94-1.44a13.93 13.93 0 00-7.3-1.93c-1.76 0-3.42.29-4.93.84-.33.13-.67.28-1.02.47a3.53 3.53 0 00-2.46-1.02h-20.4c-.96 0-1.83.4-2.46 1.02a14.12 14.12 0 00-6.17-1.36c-2.9 0-5.54.75-7.87 2.22-.73.46-1.4 1-2.03 1.58a.76.76 0 01-.03-.02l-2.3-2.3a3.5 3.5 0 00-2.57-1.13H27.6a3.5 3.5 0 00-2.34 1.07c-.37-.22-.73-.4-1.04-.52-1.54-.6-3.25-.9-5.1-.9-2.9 0-5.54.75-7.87 2.22a15.02 15.02 0 00-5.45 6.23 20.24 20.24 0 00-1.88 8.94c0 3.34.63 6.33 1.88 8.9a15.7 15.7 0 002.97 4.25l.2.21.22.21.2.2.21.22.04.04h-.2a2 2 0 00-2 2v8.44c0 1.02.45 1.94 1.15 2.58l3.75 3.75a3.5 3.5 0 002.58 1.14h15.9a12.6 12.6 0 0012.6-12.6v-3.14l.1.1.63.63a14.08 14.08 0 0010.56 4.45c1.86 0 3.58-.3 5.13-.9.32-.13.68-.28 1.04-.46.63.63 1.5 1.02 2.46 1.02h20.3a3.5 3.5 0 003.51-3.5v-2.18c.18.3.4.56.64.8l3.75 3.74a3.5 3.5 0 002.58 1.14h8.3a3.5 3.5 0 003.51-3.5v-2.19c.18.3.4.56.65.8l3.75 3.74a3.5 3.5 0 002.58 1.14h8.25a3.5 3.5 0 003.5-3.5v-1.84l.03.03.84.83c1.1 1.08 2.35 2 3.76 2.74a18.84 18.84 0 008.85 2.07c3.25 0 6.22-.7 8.84-2.08a15.67 15.67 0 005.33-4.57l.1.11 1.68 1.67a13.3 13.3 0 001.96 1.77c2.8 2.06 6.46 3.11 10.9 3.11 2.64 0 4.99-.43 7-1.3.98-.41 1.85-.92 2.63-1.49l.08.07c.41.43.83.84 1.25 1.25a3.5 3.5 0 002.58 1.14h8.3a3.5 3.5 0 003.5-3.5v-2.67c.2.5.5.93.89 1.28l3.75 3.75a3.5 3.5 0 002.58 1.14h8.3a3.5 3.5 0 003.51-3.5v-3.7a14.54 14.54 0 008.12 4.35c1.83.32 3.57.33 5.21.01.32-.06.68-.14 1.05-.24l.15.14.2.2c.5.55 1.18.94 1.95 1.08l8.12 1.46a3.5 3.5 0 004.07-2.83l.03-.2.19.18 2.92 2.92a15.56 15.56 0 005.88 3.67c1.9.67 3.93 1.01 6.04 1.01.98 0 2-.07 3.02-.22a18.74 18.74 0 008.45-3.32c.78-.57 1.49-1.2 2.14-1.88a3.5 3.5 0 002.3.86h8.3a3.5 3.5 0 003.5-3.51v-.45l2.83 2.81a3.5 3.5 0 002.58 1.14h17.4l-.05-.06c1.36.26 2.8.4 4.36.4 2.64 0 4.99-.44 7-1.3a11.85 11.85 0 005.14-4.02 10.46 10.46 0 001.9-6.14c0-2.76-.77-5.06-2.3-6.84z"/>
  <path d="M134 30.4c-2.36 0-5.1 1.08-5.58 4.81h11.3c-.42-3.47-3.11-4.81-5.72-4.81M222 28.8a5.6 5.6 0 00-4.54.96c-1.27.95-2.09 2.45-2.46 4.49-.37 2.04-.12 3.73.74 5.06s2.17 2.16 3.92 2.48a5.57 5.57 0 004.54-1.01c1.31-.98 2.14-2.46 2.5-4.43.36-2.01.1-3.7-.8-5.05a5.64 5.64 0 00-3.9-2.5"/>
  <g fill="#f2f2f2">
    <path d="M169 36.7c-1.33-.5-3.02-1-5.1-1.48a21.31 21.31 0 01-4.2-1.26c-.9-.42-1.33-1.05-1.33-1.89 0-.74.24-1.32.73-1.72.48-.4 1.2-.6 2.14-.6 1.2 0 2.19.3 2.98.94.79.63 1.3 1.5 1.53 2.6l7.29-1.81a10.82 10.82 0 00-3.39-4.98c-2.05-1.71-4.8-2.57-8.22-2.57-3.36 0-5.97.75-7.81 2.26a7.25 7.25 0 00-2.76 5.9c0 1.88.47 3.36 1.41 4.44a8.11 8.11 0 003.35 2.35c1.29.49 2.94.94 4.95 1.36 2.01.45 3.45.88 4.34 1.29.89.4 1.33 1.08 1.33 2.01a2.2 2.2 0 01-.73 1.72c-.48.44-1.2.66-2.14.66-1.36 0-2.47-.31-3.32-.93a3.6 3.6 0 01-1.48-2.67l-7.55 1.88a9.76 9.76 0 003.58 5.06c2.2 1.62 5.13 2.43 8.78 2.43 2.17 0 4.04-.34 5.63-1.02a8.37 8.37 0 003.64-2.8 6.99 6.99 0 001.26-4.13c0-1.9-.48-3.43-1.46-4.56a8.44 8.44 0 00-3.44-2.45M129 35.2c.48-3.73 3.22-4.81 5.58-4.81 2.61 0 5.3 1.34 5.72 4.81zm17.8-4.85a12.3 12.3 0 00-5-4.83 15.18 15.18 0 00-7.21-1.67c-2.69 0-5.1.56-7.23 1.67a12.23 12.23 0 00-5.02 4.83 14.51 14.51 0 00-1.82 7.37c0 2.81.6 5.27 1.82 7.38a12.29 12.29 0 005.02 4.83 15.32 15.32 0 007.23 1.67c2.68 0 5.09-.56 7.21-1.67a12.23 12.23 0 004.87-4.62l-7.26-2.98a5.63 5.63 0 01-4.8 2.52 5.7 5.7 0 01-4.3-1.82 6.06 6.06 0 01-1.46-2.78h19.6a17.43 17.43 0 00-.07-5.55c-.29-1.59-.8-3.04-1.56-4.35zM26.2 42.6a5.6 5.6 0 01-4.3 1.79 5.56 5.56 0 01-4.29-1.75c-1.08-1.16-1.63-2.78-1.63-4.85s.54-3.69 1.63-4.85a5.6 5.6 0 014.29-1.75c1.75 0 3.18.59 4.3 1.77 1.12 1.18 1.68 2.79 1.68 4.83 0 2.01-.56 3.61-1.68 4.8zm1.68-13.4a8.45 8.45 0 00-3.3-3.83 9.82 9.82 0 00-5.34-1.41c-2.23 0-4.23.56-5.99 1.67a11.56 11.56 0 00-4.17 4.8 16.68 16.68 0 00-1.53 7.4c0 2.81.5 5.27 1.53 7.38a11.52 11.52 0 004.17 4.83 10.92 10.92 0 005.99 1.67c2.07 0 3.85-.47 5.34-1.41a8.47 8.47 0 003.3-3.83v6.91c0 1.1-.9 1.99-1.99 1.99h-14.8v6.94h15.9a9.13 9.13 0 009.13-9.13v-28.9h-8.25zM57.9 42.6a5.6 5.6 0 01-4.3 1.79 5.56 5.56 0 01-4.29-1.75c-1.08-1.16-1.63-2.78-1.63-4.85s.54-3.69 1.63-4.85a5.6 5.6 0 014.29-1.75c1.75 0 3.18.59 4.3 1.77 1.12 1.18 1.67 2.79 1.67 4.83 0 2.01-.56 3.61-1.67 4.8zm1.67-13.4a8.44 8.44 0 00-3.3-3.83 9.82 9.82 0 00-5.34-1.41c-2.23 0-4.23.56-5.99 1.67a11.56 11.56 0 00-4.17 4.8 16.68 16.68 0 00-1.53 7.4c0 2.81.5 5.27 1.53 7.38a11.52 11.52 0 004.17 4.83 10.92 10.92 0 005.99 1.67c2.07 0 3.85-.47 5.34-1.41a8.47 8.47 0 003.3-3.83v4.9h8.25v-27.1h-8.25zM107 23.9c-1.97 0-3.78.5-5.41 1.5a10.9 10.9 0 00-3.86 4.03 8.99 8.99 0 00-3.59-4.1 10.4 10.4 0 00-5.48-1.43c-1.97 0-3.7.44-5.17 1.31a8.15 8.15 0 00-3.28 3.59v-4.61h-8.3v27.1h8.3v-14.4c0-1.88.49-3.32 1.46-4.32.97-1 2.28-1.5 3.93-1.5 1.58 0 2.83.48 3.74 1.43.9.95 1.36 2.29 1.36 4v14.8H99V36.9c0-1.84.48-3.28 1.43-4.29a5.1 5.1 0 013.91-1.53 5 5 0 013.76 1.43c.92.95 1.38 2.29 1.38 4v14.8h8.25v-15.7c0-3.66-.95-6.51-2.86-8.56-1.91-2.05-4.53-3.08-7.86-3.08M194 23.9c-2.07 0-3.87.47-5.41 1.41a8.97 8.97 0 00-3.47 3.83v-4.95h-8.3v27.1h8.3v-14.4c0-1.97.5-3.49 1.48-4.56a5.17 5.17 0 014-1.6c1.58 0 2.86.51 3.81 1.53.95 1.02 1.43 2.44 1.43 4.25v14.8h8.3v-15.7c0-3.62-.91-6.47-2.74-8.54-1.83-2.07-4.3-3.11-7.4-3.11M227 36.4a6.77 6.77 0 01-2.5 4.43 5.6 5.6 0 01-4.54 1.01 5.6 5.6 0 01-3.92-2.48c-.86-1.34-1.11-3.03-.74-5.06.37-2.04 1.18-3.53 2.46-4.49a5.6 5.6 0 014.54-.96 5.64 5.64 0 013.91 2.5c.89 1.36 1.15 3.04.8 5.05zm1.53-8.5a8.46 8.46 0 00-2.57-4.36 9.83 9.83 0 00-5-2.33c-2.2-.4-4.26-.2-6.2.58a11.57 11.57 0 00-4.96 4 16.79 16.79 0 00-2.82 7c-.5 2.78-.43 5.29.2 7.54a11.42 11.42 0 003.25 5.49 11 11 0 005.6 2.7 9.8 9.8 0 005.5-.43 8.47 8.47 0 003.93-3.2l-.87 4.83 8.12 1.46 4.8-26.6-8.12-1.46zM257 46.3a5.28 5.28 0 01-3.7 2.25 5.3 5.3 0 01-4.2-1.11c-1.24-.96-2.01-2.52-2.32-4.67-.3-2.14-.01-3.86.9-5.15a5.31 5.31 0 013.72-2.28 5.2 5.2 0 014.18 1.14c.54.43.98.98 1.34 1.64l6.34-5.33a12.34 12.34 0 00-5.52-3.93 15.24 15.24 0 00-7.37-.63 15.39 15.39 0 00-6.92 2.7 12.24 12.24 0 00-4.28 5.5 14.5 14.5 0 00-.75 7.55c.4 2.8 1.35 5.13 2.85 7.04a12.23 12.23 0 005.66 4.06c2.27.8 4.74 1.01 7.4.63a15.24 15.24 0 006.89-2.68 12.3 12.3 0 004.2-5.35l-7.6-3.3a5.31 5.31 0 01-.82 1.94M294 24.2h-9.75l-8.91 10.9V24.2h-8.3v27.1h8.3V39.8l8.91 11.5h10l-11.2-13.5z"/>
    <path d="M312 36.7c-1.33-.5-3.02-1-5.1-1.48a21.31 21.31 0 01-4.2-1.26c-.89-.42-1.33-1.05-1.33-1.89 0-.74.24-1.32.73-1.72.48-.4 1.2-.6 2.14-.6 1.2 0 2.19.3 2.98.94.79.63 1.3 1.5 1.53 2.6l7.3-1.81a10.82 10.82 0 00-3.4-4.98c-2.05-1.71-4.8-2.57-8.22-2.57-3.36 0-5.97.75-7.8 2.26a7.25 7.25 0 00-2.77 5.9c0 1.88.47 3.36 1.41 4.44a8.11 8.11 0 003.35 2.35c1.3.49 2.94.94 4.95 1.36 2.01.45 3.45.88 4.34 1.29.89.4 1.33 1.08 1.33 2.01 0 .71-.24 1.29-.73 1.72-.48.44-1.2.66-2.14.66-1.36 0-2.47-.31-3.32-.93a3.6 3.6 0 01-1.48-2.67l-7.55 1.88a9.76 9.76 0 003.58 5.06c2.2 1.62 5.13 2.43 8.78 2.43 2.17 0 4.04-.34 5.63-1.02a8.37 8.37 0 003.64-2.8 6.99 6.99 0 001.26-4.13c0-1.9-.48-3.43-1.46-4.56a8.44 8.44 0 00-3.44-2.45"/>
  </g>
  <path d="M58.8 82.2c-.67 0-1.26-.13-1.76-.38s-.91-.6-1.22-1.06l-.25 1.22h-2.05v-13h2.3v5.31a3.45 3.45 0 012.98-1.49 4.2 4.2 0 013.82 2.28c.39.7.57 1.51.57 2.41s-.19 1.7-.57 2.41c-.39.7-.9 1.25-1.57 1.66-.66.4-1.41.6-2.25.6zm-.49-2.02c.74 0 1.34-.25 1.82-.74s.72-1.13.72-1.9-.24-1.43-.72-1.94-1.09-.75-1.82-.75c-.74 0-1.36.25-1.84.75-.46.5-.7 1.13-.7 1.91s.24 1.42.7 1.93c.48.5 1.1.74 1.84.74zm8.6-8.51c-.42 0-.76-.13-1.04-.38-.26-.25-.4-.57-.4-.95s.14-.7.4-.94c.28-.25.63-.38 1.04-.38s.77.13 1.03.38c.28.24.42.55.42.94s-.14.7-.42.95c-.26.25-.6.38-1.03.38zm-1.15 10.3v-8.93h2.3v8.93zm9.11 0c-.93 0-1.69-.23-2.25-.68s-.84-1.27-.84-2.43v-3.9h-1.53v-1.92h1.53l.27-2.4h2.03v2.4h2.4v1.93h-2.4v3.9c0 .44.09.74.27.9.19.16.51.24.97.24h1.12v1.96zm8.13.22c-.9 0-1.7-.2-2.39-.58s-1.24-.92-1.64-1.62-.59-1.5-.59-2.41c0-.92.2-1.75.58-2.47.4-.72.93-1.28 1.62-1.67.7-.4 1.5-.61 2.45-.61.87 0 1.65.19 2.32.57s1.19.92 1.57 1.58a4.32 4.32 0 01.55 2.63l-.01.45h-6.8c.05.7.3 1.24.73 1.64.44.4.97.6 1.6.6.46 0 .85-.11 1.17-.31a2 2 0 00.72-.83h2.34a4.29 4.29 0 01-2.29 2.63c-.56.26-1.21.4-1.93.4zm.02-7.5a2.4 2.4 0 00-1.49.5c-.43.3-.7.78-.83 1.43h4.45c-.03-.59-.25-1.06-.64-1.4s-.9-.52-1.48-.52zm6.62 3.03v-1.93h7.54v1.93zm13.8 4.46c-.79 0-1.49-.13-2.09-.38-.6-.27-1.08-.63-1.44-1.08s-.57-.99-.65-1.58h2.32c.08.35.27.65.58.9.32.24.74.36 1.24.36s.87-.1 1.1-.3a.9.9 0 00.36-.71c0-.38-.17-.64-.5-.77-.34-.15-.8-.29-1.4-.42-.39-.08-.78-.18-1.17-.3s-.77-.27-1.1-.45c-.33-.2-.6-.44-.8-.72-.2-.3-.3-.67-.3-1.1 0-.8.31-1.46.93-2a3.98 3.98 0 012.66-.81c1.06 0 1.9.24 2.52.73.64.5 1.01 1.17 1.13 2.03h-2.18c-.13-.66-.63-.99-1.49-.99-.43 0-.76.09-1 .26a.76.76 0 00-.35.63c0 .26.18.47.52.63s.81.3 1.4.43c.62.14 1.18.3 1.7.48.53.17.95.43 1.26.78.32.33.47.82.47 1.46.01.55-.13 1.05-.43 1.49s-.73.79-1.3 1.04-1.23.38-2 .38zm7.43-10.5c-.42 0-.77-.13-1.04-.38-.26-.25-.4-.57-.4-.96s.14-.7.4-.93c.28-.25.63-.38 1.04-.38s.76.13 1.03.38c.28.24.42.55.42.93s-.14.7-.42.96c-.26.25-.6.38-1.03.38zm-1.15 10.3v-8.93h2.3v8.93zm4.55 0v-1.85l4.55-5.17h-4.5v-1.91h7.13v1.85l-4.63 5.17h4.72v1.9zm13.9.21c-.9 0-1.7-.19-2.39-.57s-1.24-.93-1.64-1.62-.6-1.5-.6-2.41c0-.93.2-1.75.58-2.47.4-.72.94-1.28 1.62-1.67.7-.41 1.51-.62 2.45-.62.88 0 1.65.2 2.32.58s1.2.91 1.57 1.58a4.32 4.32 0 01.56 2.62c0 .15 0 .3-.02.45h-6.79c.05.7.3 1.24.72 1.64.45.4.98.6 1.6.6.47 0 .86-.1 1.17-.3a2 2 0 00.72-.84h2.34a4.29 4.29 0 01-2.28 2.63c-.57.27-1.21.4-1.93.4zm.02-7.49a2.4 2.4 0 00-1.49.49c-.43.31-.7.79-.83 1.44h4.45c-.03-.59-.25-1.06-.65-1.4s-.88-.52-1.48-.52zm10.9 7.5a4.2 4.2 0 01-3.82-2.29c-.39-.7-.58-1.51-.58-2.41s.2-1.7.58-2.39a4.27 4.27 0 013.82-2.27c.67 0 1.26.12 1.76.38s.91.6 1.22 1.06v-5.26h2.3v13h-2.05l-.25-1.28a4 4 0 01-1.15 1.04c-.47.3-1.08.45-1.84.45zm.49-2.03a2.4 2.4 0 001.82-.74c.48-.5.72-1.15.72-1.93s-.24-1.42-.72-1.9a2.36 2.36 0 00-1.82-.76c-.74 0-1.34.24-1.82.74s-.72 1.13-.72 1.9.24 1.43.72 1.94 1.09.75 1.82.75zm16.1-.86c-.44 0-.84-.05-1.21-.15l-.67.67c.2.1.48.2.83.27s.91.14 1.69.22c1.19.1 2.05.39 2.59.84s.8 1.1.8 1.9c0 .52-.14 1.02-.42 1.48a3 3 0 01-1.33 1.15c-.6.3-1.37.45-2.3.45-1.27 0-2.3-.24-3.08-.72a2.32 2.32 0 01-1.17-2.12c0-.8.39-1.5 1.17-2.09a3.56 3.56 0 01-1.08-.72v-.41l1.57-1.66a3 3 0 01-1.04-2.36c0-.6.14-1.15.43-1.64.3-.5.72-.88 1.26-1.17s1.19-.43 1.96-.43c.5 0 .97.07 1.4.21h3.38v1.4l-1.53.11c.24.46.36.96.36 1.51a3.02 3.02 0 01-1.7 2.81c-.53.29-1.17.43-1.92.43zm0-1.76c.46 0 .85-.13 1.15-.38.3-.25.46-.61.46-1.08s-.15-.83-.46-1.08c-.3-.25-.69-.38-1.15-.38-.5 0-.9.13-1.2.38s-.44.61-.44 1.08.15.83.45 1.08.7.38 1.19.38zm-2.16 5.53c0 .44.2.77.6.99.43.23.94.34 1.54.34.57 0 1.04-.12 1.4-.36.36-.23.54-.54.54-.94 0-.32-.12-.59-.36-.8-.23-.22-.7-.35-1.4-.4-.48-.04-.94-.1-1.36-.16-.35.19-.6.4-.76.63a1.3 1.3 0 00-.21.7zm12.1-.88a4.3 4.3 0 01-1.9-.36 2.53 2.53 0 01-1.46-2.34c0-.83.33-1.5.98-2.02s1.62-.78 2.92-.78h2.27v-.21c0-.62-.18-1.06-.52-1.35s-.78-.44-1.3-.44c-.47 0-.88.12-1.22.35a1.4 1.4 0 00-.65.97h-2.25c.06-.65.27-1.21.65-1.7.38-.47.87-.84 1.48-1.1.6-.26 1.27-.39 2.02-.39 1.27 0 2.27.32 3 .96s1.1 1.54 1.1 2.7v5.49h-1.95l-.22-1.44a3.21 3.21 0 01-2.94 1.66zm.52-1.8c.66 0 1.17-.22 1.53-.65.37-.43.6-.97.7-1.6h-1.96c-.61 0-1.05.11-1.31.34a1 1 0 00-.4.81c0 .35.14.62.4.81s.61.29 1.04.29zm7.2 1.58v-8.93h2.04l.2 1.2a3.18 3.18 0 012.79-1.42c1.38 0 2.36.53 2.93 1.6.32-.5.75-.88 1.3-1.17a3.83 3.83 0 011.8-.43c1.16 0 2.06.35 2.68 1.04s.93 1.72.93 3.06v5.04h-2.3v-4.82c0-.77-.15-1.36-.45-1.76-.29-.41-.74-.61-1.35-.61-.62 0-1.13.22-1.5.68a2.94 2.94 0 00-.57 1.91v4.61h-2.3v-4.82c0-.77-.15-1.36-.45-1.76s-.76-.61-1.39-.61c-.6 0-1.1.23-1.49.68a2.94 2.94 0 00-.55 1.91V82zm21.6.21c-.9 0-1.7-.19-2.38-.57s-1.24-.93-1.64-1.62-.6-1.5-.6-2.41c0-.93.2-1.75.58-2.47.4-.72.94-1.28 1.62-1.67.7-.41 1.51-.62 2.45-.62.88 0 1.65.2 2.32.58s1.19.91 1.57 1.58a4.32 4.32 0 01.56 2.62c0 .15 0 .3-.02.45h-6.79c.05.7.29 1.24.72 1.64.44.4.98.6 1.6.6.47 0 .86-.1 1.17-.3a2 2 0 00.72-.84h2.34a4.29 4.29 0 01-2.29 2.63c-.56.27-1.2.4-1.93.4zm.03-7.49a2.4 2.4 0 00-1.5.49c-.43.31-.7.79-.82 1.44h4.45c-.04-.59-.25-1.06-.65-1.4s-.89-.52-1.48-.52zm10.5 7.5c-.8 0-1.5-.13-2.1-.39-.6-.26-1.07-.62-1.43-1.08s-.58-.98-.65-1.58h2.32c.07.35.26.65.57.9.33.24.74.36 1.24.36s.87-.1 1.1-.3a.9.9 0 00.36-.7c0-.39-.16-.65-.5-.78-.34-.14-.8-.28-1.4-.41l-1.17-.3c-.4-.12-.76-.28-1.1-.46-.32-.19-.59-.43-.8-.72-.2-.3-.3-.66-.3-1.1 0-.79.31-1.46.94-2a3.98 3.98 0 012.66-.8c1.06 0 1.9.24 2.52.73.63.5 1 1.17 1.13 2.03h-2.18c-.13-.66-.63-.99-1.5-.99-.42 0-.76.08-1 .25a.76.76 0 00-.34.63c0 .27.17.48.52.63s.8.3 1.39.43c.62.15 1.19.31 1.7.49.54.17.96.43 1.27.77.31.34.47.83.47 1.46 0 .56-.14 1.05-.44 1.5s-.73.79-1.3 1.03-1.23.38-2 .38z"/>
</svg>