<svg xmlns="http://www.w3.org/2000/svg" width="93" height="73" fill="#FFF6B8">
    <path fill="#F2F2F2" d="M34.3 72.3a3.71 3.71 0 01-3.57-2.64l-7.12-23.5a2.5 2.5 0 00-1.4-1.58l-18.8-8.26a5.75 5.75 0 01-3.46-5.67 5.78 5.78 0 014.12-5.22S86.17.53 87.57.13l.36-.1a3.8 3.8 0 012.65.49 3.74 3.74 0 011.64 4.14s-15.8 57.7-16.3 59.4a5.78 5.78 0 01-5.58 4.17c-.93 0-1.87-.23-2.7-.67l-14.3-7.5a2.54 2.54 0 00-2.75.25L36.2 71.7l-.63.38a3.7 3.7 0 01-1.3.24"/>
    <path fill="#005" d="M89.1 3a.83.83 0 00-.6-.1L70.1 8.46l-16.6 5.03-39.2 11.9-9.4 2.85a2.9 2.9 0 00-2.07 2.63 2.9 2.9 0 001.74 2.86l21 9.27 7.84 25.9a.84.84 0 001.32.41l16.8-13.4 17.4 9.15a2.92 2.92 0 004.17-1.77l2.57-8.75v-.01l13.7-50.6A.84.84 0 0089 3z"/>
    <path d="M5.45 29.8c-.77.23-.87.92-.89 1.12 0 .2 0 .9.75 1.22l21 9.24 8.65-5.36-20.4-8.99-9.11 2.76zM40.3 48l-.06.05 29.5 15.5a1.24 1.24 0 001.78-.75l2.37-8.07-26.7-13-6.98 6.23"/>
    <path fill="#FF78C8" d="M52.5 37.5l.21.23.08.08.34.3.06.05.3.23.14.1a6.69 6.69 0 00.73.44l.14.08a12.96 12.96 0 005.75 1.28c1.94 0 3.76-.37 5.28-1.06.35-.16.7-.33 1-.52a5.32 5.32 0 002.03-2c.23-.45.35-.91.35-1.38 0-.93-.48-1.84-1.36-2.63-.3-.26-.64-.51-1.02-.75a12.16 12.16 0 00-6.28-1.58h-.2l-7.74 6.9.09.11.09.12"/>
    <path d="M67.4 30.6a6.89 6.89 0 012.72 2.81 4.6 4.6 0 01-.17 4.34 7.14 7.14 0 01-2.55 2.49 13.93 13.93 0 01-7.15 1.82c-2.15 0-4.22-.42-5.96-1.2a8.64 8.64 0 01-3.22-2.36l-2.4 2.15 25.8 12.5 6.87-25.4-.38-.14-.13-.05-.57-.23-.14-.07-.4-.19-.18-.1a9.18 9.18 0 01-1.3-.82l-.14-.11a7.67 7.67 0 01-.4-.35 5.17 5.17 0 01-1.82-4.42v-.03c.03-.19.07-.37.12-.56l.02-.05c.05-.18.11-.36.19-.53l.02-.06c.08-.17.16-.34.26-.5l.03-.07c.1-.16.2-.32.32-.48l.05-.06a6.27 6.27 0 01.95-1c.15-.14.32-.27.49-.4l.08-.06c.17-.13.35-.25.54-.37l.08-.05.6-.34c.03 0 .06-.02.08-.03.21-.11.43-.22.66-.32l.07-.02c.23-.1.47-.2.72-.28l.04-.02.8-.25.84-.2.03-.01c.28-.06.56-.1.85-.15l.07-.01c.28-.05.57-.08.86-.1l.06-.01 2.46-9.1-25.3 22.6c2.09.2 4.02.81 5.56 1.75"/>
    <path fill="#FF78C8" d="M84.2 17c-1.76.24-3.35.79-4.58 1.6-1.38.91-2.14 2.06-2.14 3.23 0 1.14.71 2.04 1.31 2.59a8.26 8.26 0 002.95 1.66L84.2 17z"/>
    <path d="M40.3 45.9L85.4 5.7 71.5 9.91l.04.25.01.14c.02.14.02.27.02.41 0 1.85-1.13 3.56-3.18 4.81a13.93 13.93 0 01-7.15 1.82c-.37 0-.73-.01-1.1-.04-.12 0-.23-.02-.35-.03-.24-.02-.49-.04-.72-.08l-.42-.06-.63-.11-.42-.1-.58-.15-.42-.13-.54-.18-.4-.16a12.23 12.23 0 01-1.7-.87l-.23-.14-8.87 2.7.03.01.49.4.1.1.4.38.05.07c.14.14.26.3.38.45l.08.11c.1.14.2.28.28.43l.03.06a5.04 5.04 0 01.46 1.1l.01.03a4.55 4.55 0 01.11 1.88c-.22 1.47-1.18 2.82-2.76 3.89l-.37.24A13.93 13.93 0 0137 28.96c-2.67 0-5.2-.64-7.12-1.8a9.72 9.72 0 01-.53-.35l-.1-.07a8.58 8.58 0 01-.47-.36l-.07-.07a8 8 0 01-.38-.34l-.06-.07a6.35 6.35 0 01-.76-.9v-.02c-.1-.14-.18-.28-.26-.43l-.05-.1a4.8 4.8 0 01-.2-.44l-.03-.08c-.06-.14-.1-.28-.14-.42l-.02-.05-9.7 2.94 19.7 8.67 22.3-13.8c.39-.24.9-.12 1.14.27s.13.91-.27 1.15l-22.1 13.7 2.54 9.56z"/>
    <path fill="#FF78C8" d="M69.8 10.3l-13.9 4.22a13 13 0 005.28 1.05c2.38 0 4.61-.56 6.28-1.58.2-.12.37-.24.54-.36 1.2-.88 1.84-1.93 1.84-3.02 0-.1 0-.21-.02-.31M28.3 22.9c.24 1.02 1.05 1.98 2.33 2.75 1.04.63 2.3 1.08 3.67 1.33.83.15 1.69.23 2.58.23 2.38 0 4.61-.56 6.28-1.58 1.34-.82 2.16-1.84 2.34-2.92.03-.16.04-.31.04-.47a3.2 3.2 0 00-.81-2.06 6.73 6.73 0 00-2.12-1.63L28.3 22.9z"/>
    <path d="M38.8 47.1l-2.62-9.88-8.87 5.5 6.84 22.6 3.82-17.2a.84.84 0 01.09-.22c0-.02.02-.04.03-.05l.11-.14.03-.03.58-.52z"/>
</svg>