<svg xmlns="http://www.w3.org/2000/svg" width="114" height="109" fill="#F2F2F2">
    <path d="M41 92.2a25.7 25.7 0 01-10.42-6.97l-6.67-8.11c-1-1.21-4.31-5.7-5.01-12.4-1.4-13.5 8.58-25.9 22.8-29.4a73.66 73.66 0 01-4.41-6.01c-2.8-4.08-5.43-7.94-8.41-9.02a5.07 5.07 0 00-2.3-.28 3.78 3.78 0 01-2.17-7.06c7.26-3.9 12.8-2.72 16.8-1.26 1.56.56 3.02 1.23 4.44 1.88 1.33.6 2.59 1.19 3.84 1.64 3.29 1.19 6.37 1.5 10.7-.82.16-.09.32-.16.5-.22a6 6 0 018.73 7.16l-5.8 16c3.32.86 6.82.91 10 .12a24.88 24.88 0 0114.42.7c2.41.87 4.61 2.12 6.53 3.7a19.14 19.14 0 017.13 13.6 16.2 16.2 0 01-.3 4.79l-1.73 8.79-.03.1c-1.76 7.64-8.58 13.8-17 15.3-1.23.23-2.48.35-3.7.38a18.68 18.68 0 00-10.5 3.53 29.75 29.75 0 01-13.7 5.4c-4.75.6-9.53.1-13.8-1.47"/>
    <path fill="#005" d="M96.8 68.4v-.03l1.74-8.72.01-.07.01-.05c.28-1.33.35-2.41.24-3.98a16.17 16.17 0 00-6.88-12.13c-.65-.48-1.34-.9-2.04-1.29a21.3 21.3 0 00-14.25-2.16h-.01c-.42.08-.83.17-1.24.27a23.6 23.6 0 01-13.8-.88l-.35-.13-.33-.12 6.81-18.8a3.06 3.06 0 00-4.99-3.25c-.02.01-.05.01-.07.03-7.15 3.84-12 1.58-17.1-.82-2.6-1.2-5.3-2.47-8.32-2.89-3.42-.47-6.8.22-10.3 2.12a.84.84 0 00.48 1.58c2.6-.27 4.93.63 7.32 2.83 2.2 2.02 4.18 4.92 6.1 7.72 2.56 3.74 5.18 7.56 8.48 9.67a29.28 29.28 0 00-20.13 9.26 24.48 24.48 0 00-5.05 8.24 21.93 21.93 0 00-1.2 9.56l.14 1.01.04.23c.04.3.1.6.16.9l.02.07c.3 1.47.75 2.9 1.36 4.27.91 2.1 1.95 3.56 2.65 4.4v.02c.33.42.67.83 1.02 1.23l5.64 6.85.03.04a23.03 23.03 0 009.48 6.16 26.74 26.74 0 0012.2 1.2c4.5-.58 8.77-2.25 12.3-4.84 3.5-2.54 7.81-4 12.1-4.1a19.36 19.36 0 0012.77-4.96 16.34 16.34 0 005.1-8.43"/>
    <path fill="#73e856" d="M55.1 52.2c.5.28.97.59 1.42.94a9.81 9.81 0 013.81 6.59c.34 2.82-.58 5.62-2.59 7.89a12.72 12.72 0 01-7.91 4.1c-2.09.28-4.18.04-6.06-.64-1.14-.41-2.21-1-3.16-1.73a9.81 9.81 0 01-3.81-6.59c-.34-2.82.58-5.62 2.59-7.89a12.72 12.72 0 019.75-4.22l4.16-11.5a28.43 28.43 0 00-16.49 2.8 26.31 26.31 0 00-7.57 5.72 22.86 22.86 0 00-4.71 7.69 19.7 19.7 0 001.41 16.59 21.51 21.51 0 005.34 6.15 24.84 24.84 0 009.03 4.48c3.5.94 7.16 1.17 10.9.7a28.16 28.16 0 0012.9-5.07 25.73 25.73 0 0114.5-4.88 21 21 0 003.33-.34c4.43-.81 8.43-3.04 11.3-6.28 2.8-3.22 4.2-7.14 3.94-11.1-.27-4-2.21-7.67-5.46-10.3-3.89-3.2-9.2-4.62-14.6-3.92-.78.1-1.55.24-2.31.43a25.42 25.42 0 01-15.2-1.07l-.28-.1z"/>
    <path d="M75.2 43.7c-.46.11-.93.21-1.4.3a1.46 1.46 0 10.54 2.88c.52-.1 1.05-.2 1.56-.33.79-.2 1.27-1 1.07-1.77a1.46 1.46 0 00-1.77-1.07M58.5 45.6a30.36 30.36 0 009.87 1.82c.81.01 1.48-.63 1.49-1.44a1.46 1.46 0 00-1.44-1.49 27.67 27.67 0 01-9.57-1.88l-.24-.1-1 2.76.17.07.72.27M33.8 46.1a1.46 1.46 0 00.38 2.54c.46.17.98.1 1.4-.2a23.1 23.1 0 0111.4-4.47 23.7 23.7 0 014.6-.05l1.02-2.85a26.63 26.63 0 00-5.96 0 25.74 25.74 0 00-12.8 5.03M45.7 65a1.38 1.38 0 00.83 1.77 1.39 1.39 0 001.78-.83L65 19.74l.07-.27a1.39 1.39 0 00-2.5-.98 2303.1 2303.1 0 01-4.92 13.38l-12 33.1z"/>
    <path fill="#FF78C8" d="M53.9 37.3c1.17-3.23 2.37-6.48 3.53-9.62l3.01-8.19a15.7 15.7 0 01-8.45 1.21c-3.01-.42-5.71-1.67-8.32-2.89-4.39-2.04-8.58-3.99-14.2-2.13.28.07.56.16.83.26 4.38 1.6 7.56 6.23 10.7 10.8 1.92 2.8 3.9 5.7 6.1 7.72 2.23 2.05 4.4 2.97 6.8 2.87"/>
</svg>