<svg xmlns="http://www.w3.org/2000/svg" width="99" height="112" fill="#F2F2F2">
<path d="M58.9 103a36.61 36.61 0 01-17.8-71c2.37-.6 4.8-.95 7.25-1.06l1.6-16.6a8.1 8.1 0 014.72-6.58l13.3-5.97.1-.04a6.25 6.25 0 01.77-.27l.3-.07h.02l.45-.09.14-.02h.03l.33-.03.05-.01h.15a6.45 6.45 0 015.42 2.58l.03.04.29.43.06.1a6.4 6.4 0 01.72 1.75l.03.09v.06a6.83 6.83 0 01.16 1.38 6.46 6.46 0 01-4.2 6.1l-10.3 4.6-1.38 14.2a36.58 36.58 0 01-2.3 70.3"/>
<path fill="#005" d="M74 6.88a3.87 3.87 0 00-.07-.22l-.05-.14-.06-.15c0-.02-.02-.03-.03-.05l-.04-.1a3.69 3.69 0 00-.13-.22l-.03-.06a3.6 3.6 0 00-3.22-1.7h-.02c-.11 0-.23.01-.34.03h-.02l-.35.07-.08.03-.24.07-.21.08-.07.03-.06.03-.05.02-13.1 5.89a5.22 5.22 0 00-3.05 4.25l-1.85 19.1A33.69 33.69 0 0029.7 40.6a33.6 33.6 0 00-8.63 9.6 33.68 33.68 0 00-4.4 12.1 33.89 33.89 0 006.38 25.5 33.6 33.6 0 009.61 8.64 33.68 33.68 0 0012.1 4.4 33.89 33.89 0 0025.5-6.39 33.6 33.6 0 008.63-9.6 33.68 33.68 0 004.4-12.1 33.89 33.89 0 00-6.39-25.5A33.6 33.6 0 0058.1 34.8l1.76-18.2 11.9-5.33a3.63 3.63 0 002.43-3.45v-.1l-.01-.17-.02-.2-.03-.12c0-.08-.02-.16-.04-.23v-.03l-.04-.1z"/>
<path fill="#66dfff" d="M50.9 56.6a5.81 5.81 0 112.83 11.28A5.81 5.81 0 0150.9 56.6m13.2-2.88c.14-1.39.8-2.51 1.85-3.16a4.07 4.07 0 013.66-.23 6.37 6.37 0 013.08 2.64 6.39 6.39 0 01.98 3.94 4.06 4.06 0 01-1.85 3.16c-.33.2-.68.34-1.04.44-.82.2-1.71.13-2.61-.21a6.37 6.37 0 01-3.08-2.64 6.39 6.39 0 01-.98-3.94m-33.4-11.7a31.72 31.72 0 00-8.2 9.14 31.82 31.82 0 00-3.59 24.2 32.1 32.1 0 005.48 11.5 31.72 31.72 0 009.14 8.2 31.8 31.8 0 0024.2 3.58 32.07 32.07 0 0011.5-5.48 31.72 31.72 0 008.2-9.14 31.8 31.8 0 003.59-24.2 32.07 32.07 0 00-5.48-11.5A32.34 32.34 0 0057.9 36.56l-.43 4.45.55.38c1.22.95 1.85 2.18 1.76 3.46-.09 1.28-.88 2.41-2.22 3.18-.53.3-1.13.54-1.76.7a8.66 8.66 0 01-7-1.3c-1.21-.95-1.84-2.18-1.75-3.46.09-1.28.87-2.41 2.22-3.18.31-.18.64-.34 1-.47l.46-4.74a32.07 32.07 0 00-20.06 6.43"/>
<path d="M35.1 41c-.7.4-1.4.82-2.07 1.28a1.46 1.46 0 101.63 2.43c.6-.4 1.24-.8 1.87-1.15A1.47 1.47 0 0035.1 41M28.8 45.7a30.48 30.48 0 00-9.19 19.65 1.47 1.47 0 102.92.21 27.79 27.79 0 018.31-17.78 1.46 1.46 0 10-2.04-2.1"/>
<path fill="#FFF6B8" d="M71.2 9.68l-.19.07.19-.07M71.8 6.38a1.97 1.97 0 010 0M72.4 7.58l-.03-.18.03.18M71.5 6.17a1.96 1.96 0 010 0M72 6.64a1.98 1.98 0 010 0M72.3 7.23l-.07-.2.07.2M72.2 6.9l-.12-.2.12.2M54.8 13.6a3.5 3.5 0 00-.28.71l-.05.15c-.03.16-.06.31-.07.47l-2.84 29.4c-.09.88.43 1.67 1.2 1.98a1.9 1.9 0 002.57-1.19c.05-.13.08-.27.1-.42l2.82-29.2 10.3-4.6a3.6 3.6 0 01-1.6-3.55l-10.4 4.68c-.71.32-1.3.88-1.66 1.55M71.1 6.02l-.28-.07.28.07M72.4 7.84V7.8v.04M70.7 5.93"/>
<circle cx="70.5" cy="7.8" r="2"/>
</svg>