<svg xmlns="http://www.w3.org/2000/svg" width="116" height="124" fill="#F2F2F2">
  <path d="M43.5 113a19.6 19.6 0 01-8.61-16.6 19.8 19.8 0 01-21.3-4.2 19.8 19.8 0 01-.2-27.9c4.48-4.55 11-6.63 17.2-5.61l1.48-1.52c1.73-1.75 4.38-2.19 7.28-1.2.59.2 1.17.45 1.76.76 1.5-.64 3.14-1.2 4.93-1.67.18-.21.38-.41.59-.6l6.84-6.14-7.72-5.12a5.76 5.76 0 01-2.11-6.96 5.75 5.75 0 016.34-3.55l9.06 1.52-.8-9.15a5.83 5.83 0 0110.8-3.33l4.46 8.03 6.66-6.34a5.76 5.76 0 017.28-.59 5.76 5.76 0 012.1 6.99l-3.5 8.5 9.1 1.25c.91.13 1.75.45 2.5.96a5.86 5.86 0 012.44 5.72 5.73 5.73 0 01-4.1 4.64l-8.83 2.57 4.7 7.9a5.76 5.76 0 01-1.02 7.19 5.75 5.75 0 01-7.24.56l-7.58-5.35-3.25 8.6a5.73 5.73 0 01-5.56 3.74 5.8 5.8 0 01.95 3.97l-.29 2.15a19.6 19.6 0 016.2 17.1 19.7 19.7 0 01-22.2 17c-3.09-.4-5.96-1.5-8.52-3.26"/>
  <path fill="#005" d="M42.9 84.4l.15-.35a16.7 16.7 0 00.55-10.8l2.56-2.6c.92-.93 1.07-2.43.42-4.24a10.6 10.6 0 00-1.08-2.14c2.34-.9 6.01-1.84 11.5-2.24l.68-.06-.4.56a19.9 19.9 0 00-3.33 11.2c-.77.09-1.48.23-2.13.45-1.83.6-2.93 1.64-3.1 2.94l-.5 3.7a16.8 16.8 0 00-5.3 3.49zM69.1 105a16.6 16.6 0 002.16-6.31 16.7 16.7 0 00-6.41-15.5l.5-3.73c.16-1.3-.63-2.59-2.24-3.65a11.9 11.9 0 00-3.16-1.4 14.1 14.1 0 014.22-10.7l.39 6.55c.05.9.5 1.7 1.23 2.2s1.68.64 2.53.38c.83-.27 1.49-.9 1.8-1.73l4.59-12.1 10.6 7.48.03.02a2.87 2.87 0 004.1-3.85l-6.62-11.1 12.5-3.62a2.89 2.89 0 00-.41-5.6l-12.8-1.77 4.93-12c.26-.66.3-1.37.07-2.02a2.9 2.9 0 00-4.72-1.16L73 34.32l-6.3-11.3c-.23-.4-.53-.74-.9-1a2.9 2.9 0 00-3.09-.08 2.84 2.84 0 00-1.4 2.73l1.14 12.9-12.8-2.14a2.83 2.83 0 00-3.14 1.76 2.9 2.9 0 00-.12 1.81 2.9 2.9 0 001.2 1.66l10.8 7.17-9.65 8.67c-.31.29-.55.62-.72 1-2.99.7-5.24 1.56-6.9 2.4a12 12 0 00-2.55-1.29c-1.82-.62-3.33-.45-4.25.49l-2.6 2.64a16.8 16.8 0 107.53 28.3 16.7 16.7 0 002.13 16.8 16.8 16.8 0 004.82 4.27 16.6 16.6 0 006.31 2.16 16.7 16.7 0 0012.4-3.32 16.8 16.8 0 004.27-4.82z"/>
  <path fill="#FFF6B8" d="M66.2 70.3c.28 1.21 2.23 1.09 2.38-.16 1.62-4.21 3.17-8.46 4.83-12.7.65-.95 1.83-.38 2.47.24 3.55 2.47 7.04 5.05 10.6 7.44 1.14.45 2.09-1.13 1.28-1.99-2.3-3.9-4.67-7.78-6.92-11.7-.4-1.28 1.17-1.67 2.12-1.89 4.01-1.2 8.06-2.29 12-3.57 1.03-.63.41-2.33-.78-2.22-4.5-.64-9.03-1.2-13.5-1.89-.98-.36-.84-1.6-.36-2.32 1.63-4.07 3.4-8.1 4.94-12.2.16-1.2-1.57-1.79-2.23-.78-3.32 3.1-6.54 6.33-9.9 9.36-.93.5-1.73-.38-2-1.2-2.16-3.8-4.2-7.7-6.42-11.5-.81-.9-2.4.09-2.02 1.24.38 4.5.84 9.02 1.16 13.5-.18 1.24-1.68 1.06-2.6.8-4.17-.66-8.32-1.44-12.5-2.04-1.24.05-1.49 1.93-.33 2.35 3.76 2.52 7.58 4.97 11.3 7.54.78.83-.03 1.86-.78 2.35l-8.49 7.62c4.43-.9 9.4-.28 13.3-3.08 2.67-1.81 4.21-4.85 4.72-7.97.7-2.14 3.86-2.63 5.17-.8 1.34 1.74.14 3.95-.23 5.81a19.99 19.99 0 01-7.57 11.2c-.56.57-.02 1.62-.13 2.4.14 2 .2 4 .38 5.98"/>
  <path fill="#73E856" d="M46.6 62.1a38.1 38.1 0 012.5-.66l.1-.02.73-.15a47.8 47.8 0 014.38-.7c.79-.08 1.61-.16 2.48-.22a21.2 21.2 0 005.67-1.16c-.65.57-1.34 1.2-2.04 1.96a20 20 0 00-2.99 4.28l-.13.28c-.26.55-.49 1.1-.68 1.63a19.6 19.6 0 00-1.09 6.34 16.3 16.3 0 012.66.24v-.46c0-.38.03-.79.07-1.2.2-2.23.85-4.85 2.52-7.29a18.4 18.4 0 013.19-3.56 24.8 24.8 0 011.22-1.04c2.61-2.17 5.1-4.23 6.9-10.8.13-.52.27-1.06.4-1.64l.15-.72a18.1 18.1 0 00.07-.5c0-.23-.06-.46-.17-.66l-.1-.16a1.28 1.28 0 00-.18-.18l-.06-.04a1.34 1.34 0 00-.18-.12l-.02-.02a1.35 1.35 0 00-.53-.14 1.32 1.32 0 00-1.38 1.1l-.06.3a58.9 58.9 0 01-.37 1.48c-.37 1.2-1 2.63-2.05 4.03l-.03.04a12.2 12.2 0 01-3.52 3.15 16.6 16.6 0 01-7.3 2.17l-.16.01a56.5 56.5 0 00-8.92 1.36 30.9 30.9 0 00-5.25 1.78 16.7 16.7 0 011.99 2.03 23.7 23.7 0 012.19-.76"/>
  <path fill="#FF78C8" d="M62.3 77.2a11.7 11.7 0 00-4.9-1.7 11.8 11.8 0 00-5.07.33c-1.15.37-1.88.96-1.96 1.57L50 80.27l.17-.05a16.8 16.8 0 0113 1.7l.18.12.38-2.89c.08-.58-.43-1.3-1.38-1.95M66.6 87.2a15 15 0 00-10-5.79 15.1 15.1 0 00-17 13 15.1 15.1 0 0013 17 15.1 15.1 0 0014-24.2"/>
  <path d="M57.6 84.9c.1-.8-.46-1.54-1.26-1.65-.49-.06-.99-.1-1.48-.11a1.47 1.47 0 00-.86 2.68c.23.15.5.25.8.25.38.01.77.04 1.15.1.8.1 1.54-.47 1.65-1.27m-5.8 0a1.47 1.47 0 00-1.89-.86 13.4 13.4 0 00-5.96 4.47 1.46 1.46 0 102.35 1.76 10.3 10.3 0 014.64-3.48 1.47 1.47 0 00.85-1.89"/>
  <path fill="#FF78C8" d="M42.1 62.8a11.7 11.7 0 00-4.23-2.79c-1.14-.39-2.08-.36-2.51.07l-2 2.03.24.1a16.7 16.7 0 019.31 9.18l.05.11 1.97-2c.92-.94-.08-4-2.82-6.7M42.5 77.7a15.2 15.2 0 00-6.61-12.4 15.2 15.2 0 00-19.3 1.89 15 15 0 00-4.35 10.7 15.2 15.2 0 004.51 10.7 15 15 0 0010.7 4.35c4.04-.03 7.82-1.63 10.7-4.51s4.38-6.68 4.35-10.7"/>
  <path d="M31.8 66.8c.2-.78-.27-1.58-1.05-1.79-.21-.06-.43-.1-.65-.15A1.47 1.47 0 0028.37 66a1.48 1.48 0 001.14 1.73l.5.12c.79.2 1.58-.27 1.8-1.05m-6.41-2.1a13.2 13.2 0 00-8.87 5.62 1.46 1.46 0 102.42 1.66 10.2 10.2 0 016.91-4.38 1.47 1.47 0 10-.46-2.9"/>
</svg>