<svg xmlns="http://www.w3.org/2000/svg" width="75" height="100" fill="#F2F2F2">
<path d="M53.8 99.6c-2.08 0-4.11-.6-5.85-1.76l-.51-.34a5.58 5.58 0 01-.13-.08l-.16-.1-.17-.13a4 4 0 01-.29-.18l-.08-.07a10.5 10.5 0 01-4-4.8l-4.26-10.2a4.6 4.6 0 00-1.04-1.52 4.46 4.46 0 00-1.68-.36 33.18 33.18 0 01-18.08-5.87l-1-.66-.35-.24A32.5 32.5 0 014.6 59l-2-4.78a32.99 32.99 0 01-2.59-12.9 32.78 32.78 0 0143-31.35 15.43 15.43 0 0111.06-1.5l1.51-5.32a4.12 4.12 0 014.3-3 4.4 4.4 0 014.02 3.8c.04.26.04.26.2.45.17.2.17.2.7.35.99.28 2.65.74 4.25 2.63s1.8 3.6 1.91 4.64c.06.54.06.54.23.74.16.19.16.19.42.26a4.4 4.4 0 013.1 4.57 4.14 4.14 0 01-3.66 3.77l-5.48.64a15.05 15.05 0 01-1.2 7.2c.06.11.1.23.15.35l2.12 5.08a32.8 32.8 0 01-6.42 35.2 4.57 4.57 0 00-.88 4.9l4.26 10.2a10.65 10.65 0 01-9.79 14.73"/>
<path fill="#005" d="M61.6 17.8a12.49 12.49 0 00-4.25-5l2.19-7.7c.15.62.45 1.29 1.08 2.03 1.05 1.24 2.03 1.5 2.89 1.75.75.2 1.35.37 2.07 1.22.72.85.79 1.46.87 2.24.1.89.21 1.9 1.26 3.14a4.94 4.94 0 001.83 1.4zm9.14-2.27A3.25 3.25 0 0169 14.4c-.72-.85-.79-1.46-.87-2.24-.1-.89-.21-1.9-1.26-3.14-1.05-1.24-2.03-1.51-2.9-1.75-.75-.21-1.34-.38-2.06-1.22a3.24 3.24 0 01-.84-1.9 1.6 1.6 0 00-1.45-1.39 1.35 1.35 0 00-1.43 1l-2.33 8.17a12.44 12.44 0 00-8.9-.81c-1.33.38-2.56.97-3.68 1.75a29.75 29.75 0 00-10.5-1.92h-.04a29.94 29.94 0 00-27.8 18.87A30.51 30.51 0 002.76 41.3c0 4.04.8 8 2.37 11.7l2 4.78a29.67 29.67 0 0010.71 13.17l.07.05.08.05.07.05.07.04.08.05.07.05.07.05.08.05.07.05.07.05.08.05.07.05.07.04.08.05.07.05.07.05.08.05.07.05a30.22 30.22 0 0016.44 5.34c1.13.02 2.21.31 3.18.8a7.38 7.38 0 012.05 2.8l4.26 10.2a7.84 7.84 0 002.32 3.08l.04.03.42.3.21.16.08.05.13.08.03.02.13.1.1.06.12.08.14.08.03.03.12.08.08.05.1.07.12.08.07.05a7.82 7.82 0 007.4.73 7.88 7.88 0 004.2-10.3l-4.26-10.2a7.37 7.37 0 011.42-7.9 30.28 30.28 0 008.15-22.6 30.12 30.12 0 00-2.27-9.64l-2.12-5.08c-.2-.5-.43-.99-.66-1.47a12.4 12.4 0 001.06-9.4l-.06-.19 8.44-.97a1.35 1.35 0 001.2-1.25 1.6 1.6 0 00-1.12-1.66z"/>
<path fill="#FFF6B8" d="M34.3 74.5a9.05 9.05 0 018.13 5.55l4.26 10.2a6.17 6.17 0 0011.37-4.76l-4.26-10.2a9.04 9.04 0 011.75-9.69 28.67 28.67 0 006.36-10.7l-39.7 16.6a28.57 28.57 0 0012.1 3.01"/>
<path fill="#ff78c8" d="M32.8 12.6h-.04c-3.8 0-7.51.76-11 2.25a27.8 27.8 0 00-9.3 6.39A28.58 28.58 0 004.5 41.22c.01 3.82.76 7.56 2.24 11.1l2 4.78a28.3 28.3 0 0011.61 13.41l42.2-17.7a28.3 28.3 0 00-1.4-17.69l-1.56-3.75a12.28 12.28 0 01-10.5 3.93 12.35 12.35 0 01-4.1-1.2l-2.33 8.16a1.35 1.35 0 01-1.44 1 1.6 1.6 0 01-1.45-1.4 3.26 3.26 0 00-.83-1.9c-.72-.84-1.31-1-2.07-1.21-.86-.24-1.84-.51-2.89-1.75s-1.16-2.25-1.26-3.14a3.49 3.49 0 00-.87-2.24 3.23 3.23 0 00-1.74-1.13 1.59 1.59 0 01-1.13-1.66c.06-.67.54-1.17 1.2-1.25l8.45-.97-.07-.2a12.4 12.4 0 013.32-12.33 28.14 28.14 0 00-9.02-1.5"/>
<path d="M17.3 19.5a26.19 26.19 0 00-5.8 5.76 26.95 26.95 0 00-3.74 7.15 1.46 1.46 0 001.39 1.94c.6 0 1.18-.38 1.39-.99a23.95 23.95 0 013.33-6.37 23.37 23.37 0 015.15-5.12 1.47 1.47 0 00-1.72-2.38M8.2 36.2c-.8-.11-1.54.45-1.66 1.25-.12.83-.2 1.67-.23 2.5a1.46 1.46 0 001.47 1.53c.77 0 1.43-.61 1.46-1.4.03-.74.1-1.49.2-2.23.12-.8-.44-1.54-1.25-1.66M33.1 30.6c1.05 1.24 1.16 2.25 1.26 3.14.09.78.15 1.39.87 2.24.73.85 1.31 1.01 2.07 1.22.87.24 1.84.51 2.9 1.75.62.74.92 1.41 1.07 2.03l2.2-7.7a12.53 12.53 0 01-4.26-5l-7.95.91c.59.26 1.2.66 1.83 1.4"/>
<path d="M47.9 15.9a1.47 1.47 0 00-2.01-.51 8.97 8.97 0 00-4.3 6.62 1.47 1.47 0 001.46 1.64c.74 0 1.37-.55 1.45-1.3a5.92 5.92 0 012.88-4.43c.7-.41.93-1.31.51-2.01"/>
<path fill="#66dfff" d="M58.8 16.4a10.67 10.67 0 00-8.34-4.03 10.8 10.8 0 00-8.87 4.67 10.72 10.72 0 1017.21-.64"/>
</svg>