<svg xmlns="http://www.w3.org/2000/svg" width="104" height="108" fill="#ff78c8">
<path fill="#F2F2F2" d="M14 81.7a5.17 5.17 0 01-.9-6.83L27 53.97a8.9 8.9 0 01-.22-9.34l4.48-7.24a7.4 7.4 0 011.25-6.95 7.4 7.4 0 017.33-2.52A26.14 26.14 0 0154 14.55l.03-.01A26.35 26.35 0 0163 12.72a26 26 0 0117.2 5.86 26.1 26.1 0 014.74 5.03 26.32 26.32 0 01-5.68 36.42 7.4 7.4 0 01-.97 7.69 7.4 7.4 0 01-6.55 2.64l-6.16 5.84a8.93 8.93 0 01-9.2 1.71l-17.6 17.8a5.2 5.2 0 01-6.88.5L14 81.72z"/>
<path fill="#005" d="M75.9 65.9a4.57 4.57 0 00-.78-6.41l-.2-.17A23.26 23.26 0 0086.8 38l-.01-.03-.01-.28-.02-.06c-.02-.34-.03-.67-.07-1.01a23.1 23.1 0 00-8.48-15.7 23.26 23.26 0 00-15.55-5.2l-.1.01a23.1 23.1 0 00-17.12 8.58A23.3 23.3 0 0041.3 32l-.21-.17a4.57 4.57 0 00-6.44.54 4.51 4.51 0 00-.12 5.44c-.2.15-.37.33-.5.54l-1.8 2.9-3.08 5a6 6 0 001.38 7.59l-.15.21-.32.48-14.6 22c-.64.98-.5 2.28.32 2.95l17.9 14.5c.82.67 2.12.54 2.95-.3l1.84-1.85c5.58-5.65 11.2-11.3 16.7-16.9l.59-.6a6 6 0 007.7-.2l2.07-1.96 4.66-4.42c.18-.17.33-.38.43-.6 1.84.79 4.02.35 5.3-1.23z"/>
<path d="M78 43.8c.08-.72.2-1.49.38-2.3.45-2.09 1-3.98 1.5-5.65 1.1-3.78 1.97-6.77 1.07-9.79a21.54 21.54 0 00-15.99-8.67A30.76 30.76 0 0168 20.73l2.12 3.02-.04-.02.44.74c1.8 3.15 3 6.52 3.54 10 .55 3.5.43 6.95-.37 10.3l-.1.38a30 30 0 004.42-1.3"/>
<path d="M51 21.4a21.43 21.43 0 00-8.22 11.57l-.05.18 5.1 4.14a.84.84 0 01-1.07 1.3l-6.7-5.45c-1.27-1.04-3.1-.9-4.08.3s-.73 3.02.54 4.05l.6.5 33.4 27.2a2.9 2.9 0 004.09-.3c.97-1.2.73-3.03-.54-4.06l-4.53-3.68a.84.84 0 011.06-1.3l2.92 2.37.16-.08a21.45 21.45 0 006.13-4.88l-.24-.25a.81.81 0 01-.08-.08c-.09-.12-1.82-2.42-1.69-7.22l-.33.12c-1.42.48-2.92.87-4.5 1.17a23.86 23.86 0 01-7.4 10.75.83.83 0 11-1.07-1.29 21.9 21.9 0 003.3-3.38 22.42 22.42 0 003.28-5.78 42.8 42.8 0 01-8.02.29 7.9 7.9 0 01-1.49 3.67.84.84 0 01-1.17.18l-.03-.03a.84.84 0 01-.14-1.15 6.48 6.48 0 001.16-2.8 39.95 39.95 0 01-9.2-1.88.83.83 0 01-.53-1.05.84.84 0 011.06-.54 40.9 40.9 0 008.7 1.8c-.37-3.23-2.94-6.72-5.44-10.1-1.92-2.6-3.89-5.27-4.92-7.91l-.7-3.07a6.92 6.92 0 01.64-3.27z"/>
<path d="M80 41.8c-.09.4-.16.78-.22 1.16 2.47-1.23 4.3-2.78 5.25-4.5.05-.1.16-.39.14-.65a21.45 21.45 0 00-2.2-8.47c-.12 2.2-.78 4.46-1.5 6.93-.5 1.72-1.03 3.5-1.46 5.53M79.9 49.4c.35 1.41.84 2.19.95 2.36l.09.08A21.5 21.5 0 0085.1 41.2c-.6.64-1.3 1.25-2.1 1.81-1 .7-2.15 1.34-3.42 1.9-.13 1.97.07 3.47.32 4.48"/>
<path d="M52.2 23.2l.32 3.5c.88 2.55 2.9 5.29 4.86 7.94 2.7 3.67 5.49 7.45 5.78 11.2a41.46 41.46 0 008.59-.4c1-3.36 1.23-7 .64-10.7a27.58 27.58 0 00-3.34-9.42 29.68 29.68 0 00-6.62-7.92 21.95 21.95 0 00-6.58 1.4 8.3 8.3 0 00-2.26 1.75c-.73.82-1.2 1.7-1.4 2.65"/>
<path fill="#F2F2F2" d="M72 23a1.46 1.46 0 00-.77-1.92c-.6-.25-1.21-.48-1.83-.68a1.46 1.46 0 00-1.45.35 1.45 1.45 0 00.08 2.2c.14.11.3.2.5.26.5.16 1.01.34 1.5.55l.04.02c.74.32 1.61-.03 1.92-.77M52.5 26.7a16.47 16.47 0 0110.8-4.25 1.47 1.47 0 00-.05-2.93 19.6 19.6 0 00-12.88 5.14l-.63.6a1.46 1.46 0 102.08 2.07l.66-.63"/>
<path fill="#FFF6B8" d="M62.3 72.9l2.06-1.96 4.66-4.42a.22.22 0 00.08-.18c0-.13-.1-.27-.23-.38l-32.8-26.7c-.14-.12-.3-.17-.42-.15a.22.22 0 00-.17.1l-1.79 2.9-3.09 4.99c-.49.8-.66 1.82-.47 2.84a4.3 4.3 0 001.5 2.58l25.2 20.5a4.33 4.33 0 005.52-.1M36.1 91.8l1.11-1.12 4.47-4.52-6.09.63.52 5.02zM30.8 56.4l-5.97 8.99 6.83-.7-.85-8.3zM44.4 73.8l7.36-.76-8.11-6.6.76 7.36zM33.3 64.6l7.07-.73-7.79-6.34.73 7.07zM33.5 66.2l.88 8.59 8.3-.85-.88-8.6-8.3.86zM17 78.3l6.5 5.29-.6-5.89-5.9.6zM22.1 69.6l-4.64 6.99 5.3-.55-.66-6.44zM28.4 87.5l6.18 5.03-.58-5.6-5.6.58zM35.5 85.1l8.12-.83.17-.18-.87-8.44-8.3.86.89 8.59zM24.6 77.5l.78 7.56 1.14.93 7.27-.75-.89-8.6-8.3.86zM44.5 75.5l.73 7.07 7.85-7.95-8.58.88zM23.7 67.2l-.09.13.87 8.47 8.3-.85-.88-8.59-8.2.84z"/>
</svg>